<?xml version="1.0" encoding="UTF-8"?>
<!DOCTYPE svg PUBLIC "-//W3C//DTD SVG 1.1//EN" "http://www.w3.org/Graphics/SVG/1.1/DTD/svg11.dtd">
<svg xmlns="http://www.w3.org/2000/svg" version="1.1" width="1200px" height="2200px" style="shape-rendering:geometricPrecision; text-rendering:geometricPrecision; image-rendering:optimizeQuality; fill-rule:evenodd; clip-rule:evenodd" xmlns:xlink="http://www.w3.org/1999/xlink">
<g><path style="opacity:0.986" fill="#f8981c" d="M 753.5,16.5 C 777.258,43.8943 790.425,75.8943 793,112.5C 794.94,149.135 788.273,184.135 773,217.5C 754.532,256.131 730.865,291.131 702,322.5C 684.469,341.698 665.969,359.865 646.5,377C 623.5,396 600.5,415 577.5,434C 550.589,457.896 527.756,485.063 509,515.5C 482.603,562.813 480.603,611.146 503,660.5C 510.197,675.673 518.197,690.34 527,704.5C 547.914,734.66 568.581,764.993 589,795.5C 595.676,806.85 601.843,818.517 607.5,830.5C 561.195,792.034 518.028,749.701 478,703.5C 456.457,678.261 438.457,650.594 424,620.5C 399.425,564.516 407.092,513.516 447,467.5C 466.833,443.667 488.667,421.833 512.5,402C 546.212,374.619 580.212,347.619 614.5,321C 645.218,296.618 673.718,269.784 700,240.5C 720.903,216.049 737.236,188.716 749,158.5C 759.718,128.039 763.718,96.7059 761,64.5C 759.256,48.3678 756.756,32.3678 753.5,16.5 Z"/></g>
<g><path style="opacity:0.987" fill="#f8981c" d="M 937.5,319.5 C 939.337,319.639 939.67,320.306 938.5,321.5C 885.453,351.679 834.453,384.846 785.5,421C 760.72,440.113 738.22,461.613 718,485.5C 687.488,523.372 684.488,563.372 709,605.5C 724.012,629.528 740.012,652.861 757,675.5C 780.564,713.172 781.564,751.505 760,790.5C 742.297,817.871 720.13,841.038 693.5,860C 681.768,868.061 669.768,875.728 657.5,883C 656.5,883.667 655.5,883.667 654.5,883C 675.156,864.854 689.656,842.687 698,816.5C 705.071,785.781 698.737,758.115 679,733.5C 649.557,702.344 627.891,666.344 614,625.5C 600.316,572.245 610.65,524.245 645,481.5C 672.48,448.872 704.647,422.038 741.5,401C 803.55,365.805 868.883,338.638 937.5,319.5 Z"/></g>
<g><path style="opacity:0.983" fill="#5382a1" d="M 1013.5,819.5 C 1058.96,815.035 1097.46,829.035 1129,861.5C 1153.54,893.23 1158.54,927.897 1144,965.5C 1133.09,990.074 1117.26,1010.91 1096.5,1028C 1060.24,1056.97 1019.9,1078.97 975.5,1094C 955.801,1100.71 935.968,1106.88 916,1112.5C 915.333,1111.83 915.333,1111.17 916,1110.5C 918.316,1108.53 920.149,1106.2 921.5,1103.5C 969.826,1079.67 1012.99,1048.67 1051,1010.5C 1066.5,993.18 1078.16,973.513 1086,951.5C 1097.06,904.125 1080.9,869.292 1037.5,847C 1021.23,839.678 1004.23,837.011 986.5,839C 973.67,841.709 961.004,844.709 948.5,848C 954.041,839.791 961.374,833.791 970.5,830C 984.622,825.052 998.955,821.552 1013.5,819.5 Z"/></g>
<g><path style="opacity:0.98" fill="#5382a1" d="M 405.5,833.5 C 416.172,833.333 426.839,833.5 437.5,834C 403.079,842.918 369.079,853.251 335.5,865C 323.475,869.512 311.809,874.845 300.5,881C 292.612,884.721 286.945,890.554 283.5,898.5C 285.699,904.199 289.699,908.033 295.5,910C 313.964,916.426 332.964,920.426 352.5,922C 392.085,925.537 431.752,927.37 471.5,927.5C 570.464,926.65 669.13,920.817 767.5,910C 819.378,903.684 871.045,896.351 922.5,888C 898.905,898.794 876.239,911.128 854.5,925C 776.546,943.62 697.546,955.286 617.5,960C 514.746,966.849 412.079,965.849 309.5,957C 275.609,954.018 242.275,948.018 209.5,939C 201.043,936.294 193.043,932.627 185.5,928C 175.853,921.982 174.02,914.149 180,904.5C 191.289,895.1 203.789,887.6 217.5,882C 277.529,855.16 340.196,838.994 405.5,833.5 Z"/></g>
<g><path style="opacity:0.986" fill="#5382a1" d="M 373.5,1001.5 C 374.239,1001.37 374.906,1001.54 375.5,1002C 368.211,1008.28 362.044,1015.45 357,1023.5C 352.857,1036.05 357.023,1044.89 369.5,1050C 379.462,1054.06 389.795,1056.73 400.5,1058C 500.556,1070.99 600.556,1070.66 700.5,1057C 735.381,1052.35 770.048,1046.52 804.5,1039.5C 822.715,1056.12 843.382,1068.95 866.5,1078C 718.593,1120.52 568.26,1132.52 415.5,1114C 387.067,1109.98 359.4,1102.98 332.5,1093C 321.284,1088.48 311.118,1082.31 302,1074.5C 290.652,1059.39 292.485,1045.89 307.5,1034C 316.837,1026.99 326.837,1020.99 337.5,1016C 349.56,1011.04 361.56,1006.21 373.5,1001.5 Z"/></g>
<g><path style="opacity:0.988" fill="#5382a1" d="M 407.5,1164.5 C 408.552,1164.35 409.552,1164.52 410.5,1165C 403.614,1168.89 398.447,1174.39 395,1181.5C 393.632,1187.27 395.466,1191.77 400.5,1195C 410.822,1200.66 421.822,1204.33 433.5,1206C 514.379,1218.64 595.379,1219.64 676.5,1209C 703.442,1205.14 730.275,1200.64 757,1195.5C 783.731,1210.28 811.231,1223.61 839.5,1235.5C 804.845,1251 768.845,1262.83 731.5,1271C 647.752,1289.1 563.419,1292.43 478.5,1281C 449.414,1276.98 421.08,1269.98 393.5,1260C 378.281,1254.39 364.281,1246.73 351.5,1237C 334.216,1221.26 334.216,1205.59 351.5,1190C 358.504,1185.16 365.837,1180.83 373.5,1177C 384.751,1172.31 396.084,1168.14 407.5,1164.5 Z"/></g>
<g><path style="opacity:0.981" fill="#5382a1" d="M 253.5,1271.5 C 265.022,1271.63 276.355,1273.13 287.5,1276C 290.329,1277.25 292.995,1278.75 295.5,1280.5C 250.651,1282.8 208.318,1294.3 168.5,1315C 163.026,1318.48 158.193,1322.64 154,1327.5C 152.517,1330.7 152.183,1334.04 153,1337.5C 158.936,1343.89 166.102,1348.39 174.5,1351C 196.666,1358.87 219.333,1364.87 242.5,1369C 299.113,1378.63 356.113,1384.63 413.5,1387C 576.717,1394.64 739.384,1388.31 901.5,1368C 936.233,1363.38 970.566,1356.71 1004.5,1348C 1023.72,1343.27 1041.39,1335.27 1057.5,1324C 1070.83,1311 1070.83,1298 1057.5,1285C 1069.55,1288.63 1079.05,1295.79 1086,1306.5C 1088.36,1313.95 1087.36,1320.95 1083,1327.5C 1075.29,1336.77 1066.12,1344.27 1055.5,1350C 1017.93,1368.63 978.6,1382.3 937.5,1391C 842.597,1411.73 746.597,1424.06 649.5,1428C 468.585,1436.27 288.919,1424.94 110.5,1394C 96.8481,1391.12 83.8481,1386.45 71.5,1380C 56.2625,1370.69 53.4292,1358.52 63,1343.5C 75.1463,1330.36 89.313,1319.86 105.5,1312C 152.366,1288.98 201.7,1275.48 253.5,1271.5 Z"/></g>
<g><path style="opacity:0.97" fill="#5382a1" d="M 1151.5,1360.5 C 1152.15,1361.27 1152.48,1362.27 1152.5,1363.5C 1148.39,1383.88 1138.06,1400.38 1121.5,1413C 1093.71,1432.39 1063.38,1446.72 1030.5,1456C 971.218,1472.83 910.885,1484.16 849.5,1490C 701.228,1504.53 552.895,1505.2 404.5,1492C 363.504,1488.22 323.171,1480.89 283.5,1470C 273.181,1467 263.514,1462.67 254.5,1457C 409.577,1478.21 565.244,1483.21 721.5,1472C 812.895,1466.28 903.228,1453.28 992.5,1433C 1034.46,1423.57 1074.79,1409.57 1113.5,1391C 1122.1,1386.06 1130.43,1380.73 1138.5,1375C 1143.41,1370.59 1147.74,1365.76 1151.5,1360.5 Z"/></g>
<g><path style="opacity:0.987" fill="#5382a1" d="M 98.5,1597.5 C 123.5,1597.5 148.5,1597.5 173.5,1597.5C 173.667,1732.5 173.5,1867.5 173,2002.5C 179.068,2090.32 141.402,2149.99 60,2181.5C 48.312,2167.98 36.812,2154.31 25.5,2140.5C 50.3005,2127.2 70.1338,2108.54 85,2084.5C 90.1934,2073.73 93.5267,2062.4 95,2050.5C 96.696,2036.89 97.696,2023.22 98,2009.5C 98.5,1872.17 98.6667,1734.83 98.5,1597.5 Z"/></g>
<g><path style="opacity:0.99" fill="#5382a1" d="M 357.5,1711.5 C 385.41,1710.03 412.41,1714.2 438.5,1724C 472.835,1741.47 490.335,1769.63 491,1808.5C 491.5,1891.83 491.667,1975.17 491.5,2058.5C 472.833,2058.5 454.167,2058.5 435.5,2058.5C 433.808,2046.49 431.974,2034.49 430,2022.5C 384.899,2063.72 333.066,2075.22 274.5,2057C 241.825,2042.2 224.659,2016.7 223,1980.5C 220.827,1923.68 246.66,1886.18 300.5,1868C 323.905,1860.43 347.905,1856.1 372.5,1855C 388.497,1854.5 404.497,1854.33 420.5,1854.5C 420.667,1841.16 420.5,1827.83 420,1814.5C 416.306,1784.2 399.14,1767.7 368.5,1765C 341.793,1762.78 315.46,1765.11 289.5,1772C 276.393,1775.54 263.393,1779.37 250.5,1783.5C 247.406,1769.29 244.073,1755.12 240.5,1741C 240.833,1740.5 241.167,1740 241.5,1739.5C 278.538,1722.91 317.205,1713.57 357.5,1711.5 Z M 376.5,1899.5 C 391.167,1899.5 405.833,1899.5 420.5,1899.5C 420.667,1926.17 420.5,1952.84 420,1979.5C 399.003,1999.5 374.003,2010.83 345,2013.5C 315.985,2013.19 298.985,1998.85 294,1970.5C 289.748,1936.77 303.915,1915.27 336.5,1906C 349.794,1902.68 363.127,1900.51 376.5,1899.5 Z"/></g>
<g><path style="opacity:0.989" fill="#5382a1" d="M 991.5,1711.5 C 1018.65,1710.02 1044.99,1713.85 1070.5,1723C 1103.82,1738.01 1121.99,1763.85 1125,1800.5C 1125.5,1886.5 1125.67,1972.5 1125.5,2058.5C 1107.16,2058.67 1088.83,2058.5 1070.5,2058C 1068.46,2046.54 1066.46,2035.04 1064.5,2023.5C 1046.37,2038.91 1026.03,2050.74 1003.5,2059C 972.73,2067.92 942.063,2067.58 911.5,2058C 878.979,2044.83 861.146,2020.67 858,1985.5C 853.027,1931.59 875.194,1893.76 924.5,1872C 947.026,1863.2 970.359,1857.87 994.5,1856C 1014.81,1854.68 1035.14,1854.18 1055.5,1854.5C 1055.67,1842.83 1055.5,1831.16 1055,1819.5C 1053.3,1786.8 1036.14,1768.63 1003.5,1765C 963.356,1762.63 924.522,1768.79 887,1783.5C 886.228,1783.36 885.561,1783.02 885,1782.5C 881.755,1769.02 878.588,1755.52 875.5,1742C 875.585,1740.89 875.919,1739.89 876.5,1739C 913.343,1723.04 951.676,1713.87 991.5,1711.5 Z M 1011.5,1899.5 C 1026.17,1899.5 1040.83,1899.5 1055.5,1899.5C 1055.67,1926.17 1055.5,1952.84 1055,1979.5C 1038.66,1994.26 1019.83,2004.76 998.5,2011C 979.59,2015.87 961.923,2013.2 945.5,2003C 933.298,1991.75 927.298,1977.75 927.5,1961C 927.063,1939.86 935.73,1923.86 953.5,1913C 972.038,1904.6 991.371,1900.1 1011.5,1899.5 Z"/></g>
<g><path style="opacity:0.988" fill="#5382a1" d="M 531.5,1717.5 C 557.074,1717.17 582.574,1717.51 608,1718.5C 629.333,1787.17 650.667,1855.83 672,1924.5C 676.69,1945.26 681.69,1965.93 687,1986.5C 719.053,1899.29 741.22,1809.62 753.5,1717.5C 778.5,1717.5 803.5,1717.5 828.5,1717.5C 808.281,1835.65 773.281,1949.15 723.5,2058C 708.833,2058.17 694.167,2058.33 679.5,2058.5C 664.446,2058.49 649.612,2057.83 635,2056.5C 599.986,1943.63 565.486,1830.63 531.5,1717.5 Z"/></g>
<g><path style="opacity:0.909" fill="#5282a0" d="M 1131.5,1718.5 C 1139.17,1718.5 1146.83,1718.5 1154.5,1718.5C 1154.5,1720.17 1154.5,1721.83 1154.5,1723.5C 1151.83,1723.5 1149.17,1723.5 1146.5,1723.5C 1146.5,1731.17 1146.5,1738.83 1146.5,1746.5C 1144.17,1746.5 1141.83,1746.5 1139.5,1746.5C 1139.5,1738.83 1139.5,1731.17 1139.5,1723.5C 1136.83,1723.5 1134.17,1723.5 1131.5,1723.5C 1131.5,1721.83 1131.5,1720.17 1131.5,1718.5 Z"/></g>
<g><path style="opacity:0.865" fill="#5382a1" d="M 1157.5,1718.5 C 1160.78,1718.22 1163.94,1718.55 1167,1719.5C 1169.15,1724.95 1171.48,1730.28 1174,1735.5C 1176,1730.17 1178,1724.83 1180,1719.5C 1183.06,1718.55 1186.22,1718.22 1189.5,1718.5C 1189.5,1727.83 1189.5,1737.17 1189.5,1746.5C 1187.5,1746.5 1185.5,1746.5 1183.5,1746.5C 1183.67,1740.16 1183.5,1733.82 1183,1727.5C 1180.53,1733.76 1178.36,1740.09 1176.5,1746.5C 1174.53,1746.74 1172.7,1746.41 1171,1745.5C 1169,1740.17 1167,1734.83 1165,1729.5C 1164.5,1735.16 1164.33,1740.82 1164.5,1746.5C 1162.17,1746.5 1159.83,1746.5 1157.5,1746.5C 1157.5,1737.17 1157.5,1727.83 1157.5,1718.5 Z"/></g>
</svg>
